<svg version="1" xmlns="http://www.w3.org/2000/svg" width="682.667" height="682.667" viewBox="0 0 512.000000 512.000000"><path d="M385.5 13.6c-6 3.5-15.7 9.1-21.5 12.5-5.8 3.3-11.2 6.4-12 6.9-.8.5-5.5 3.2-10.5 6-4.9 2.8-9.7 5.5-10.5 6-19.1 11.2-29.4 17-30.1 17-.5 0-.9.4-.9 1 0 .5-.4 1-.9 1-1 0-34.9 19.3-36.8 21-.7.5-1.4 1-1.7 1-.2 0-4.3 2.2-9.1 5-4.8 2.7-8.9 5-9.3 5-.3 0-1.3.6-2.1 1.4-.9.7-4.3 2.8-7.6 4.6-3.3 1.7-6.4 3.5-7 4-.5.4-3 1.9-5.5 3.3-8 4.4-24.4 13.9-27.5 15.8-1.6 1-3.7 2.2-4.5 2.6-.8.4-4.8 2.6-8.8 5-4 2.4-7.7 4.3-8.1 4.3-.5 0-1.1.4-1.3.9-.1.5-2.5 2-5.3 3.5-2.7 1.4-7.2 4-10 5.6-2.7 1.6-6.5 3.6-8.3 4.5-1.8.8-4.1 2.3-5.2 3.3-1.2.9-2.2 1.5-2.3 1.4-.1-.2-3.6 1.7-7.7 4.2s-8 4.6-8.7 4.6c-.7 0-1.3.4-1.3.8 0 .5-1.5 1.6-3.2 2.5-1.8.9-5.1 2.7-7.3 4-2.2 1.3-6 3.5-8.5 4.9-5.2 3-12.6 7.2-26.1 15-5.3 3.1-11.1 6.5-13 7.5-8.2 4.6-9.8 5.9-10.5 8.3-1.1 3.8-1.2 4.1-3.3 10-1.1 3-5.2 14.7-9.1 26-4 11.3-8.1 23-9.1 26-1.1 3-2.1 6.2-2.4 7-.2.8-2.9 8.7-6 17.5s-6.1 17.3-6.6 19c-.5 1.6-.9 22.6-.9 46.7v43.6l11 6.2c6 3.4 11 6.5 11 6.8 0 .6-22.8 14.1-25.4 15.1-.6.2-1.3.7-1.6 1-.3.4-2.7 1.8-5.3 3.1l-4.8 2.5 2.8 2.2c1.5 1.2 3 2 3.5 1.7.4-.3.8 0 .8.5 0 .6.4 1.1 1 1.1.5 0 3.4 1.6 6.4 3.5 3 1.9 5.7 3.5 5.9 3.5.3 0 6.6 3.6 14.2 8s14.1 8 14.6 8 .9.4.9 1c0 .5.4 1 1 1 .5 0 4.4 2 8.6 4.5 4.1 2.5 7.8 4.5 8 4.5.2 0 2.3 1.1 4.5 2.6 2.2 1.4 5.6 3.4 7.5 4.5 1.9 1 4.9 2.7 6.7 3.8 1.8 1 8.8 5 15.5 9 6.8 3.9 12.5 7.1 12.7 7.1.2 0 5.3-2.8 11.3-6.3 6-3.5 11.5-6.7 12.3-7 .8-.4 2.8-1.5 4.4-2.6 3.6-2.2 9.5-5.6 15-8.7 2.2-1.2 10.8-6.1 19-10.9 8.3-4.8 16.6-9.7 18.5-10.8 1.9-1 12.4-7.1 23.2-13.3 10.9-6.3 20.2-11.4 20.8-11.4.5 0 1-.5 1-1.2 0-.6.3-.9.6-.5.4.3 2.5-.6 4.8-2.2 2.2-1.5 6.1-3.9 8.6-5.2 2.5-1.3 4.7-2.7 5-3 .3-.3 3.4-2.2 7-4.1 3.6-2 11.6-6.5 17.8-10.2 6.2-3.6 13.2-7.7 15.5-9 7.6-4.3 48.9-28.1 68.2-39.3 10.5-6.1 20.8-12.1 23-13.3 2.2-1.2 8.5-4.8 14-8 5.5-3.1 11.1-6.1 12.5-6.4 5.4-1.5 7.9-2.9 7.3-3.9-.3-.6-.1-.7.6-.3 1.5 1 8.3-3.3 7.5-4.6-.4-.7-.2-.8.4-.4.7.4 2.3-.4 3.7-1.8 1.4-1.4 7.4-5.3 13.3-8.7 5.9-3.4 12.1-7.1 13.7-8.3 1.7-1.1 3.1-2 3.3-1.8.1.1 1.2-.4 2.5-1.2 6.1-3.8 14.9-8.6 15.8-8.6.5 0 .9-.4.9-.8 0-.5 1.6-1.4 3.5-2.2 1.9-.8 3.5-1.7 3.5-2.2 0-.4.7-.8 1.6-.8 3.9 0-.1-3.2-11.1-9-4.9-2.6-9.1-5.7-8.5-6.3.3-.2 4.1-2.4 8.5-4.9 4.4-2.5 12.6-7.1 18.3-10.3l10.2-5.9v-88.2c0-69.3-.3-88.4-1.2-89.1-.7-.6-3.8-2.4-6.8-4-3-1.7-12.7-7.2-21.5-12.3-8.8-5.1-18-10.4-20.5-11.8-2.5-1.3-5-2.9-5.6-3.3-.6-.5-3.7-2.3-7-4-3.2-1.7-6.6-3.8-7.5-4.5-.8-.8-1.8-1.4-2.1-1.4-.3 0-6.1-3.2-12.9-7.1-22.4-13-29.5-16.9-30.1-16.8-.1 0-5.2 2.9-11.3 6.5z"/></svg>